<svg xmlns="http://www.w3.org/2000/svg" width="752" height="80"><svg width="43" height="32" viewBox="0 0 43 32"><path fill="#2196f3" d="M38.667 0H4C1.794 0 0 1.794 0 4v24c0 2.206 1.794 4 4 4h34.667c2.206 0 4-1.794 4-4V4c0-2.206-1.794-4-4-4zm0 2.667c.181 0 .353.038.511.103L21.334 18.236 3.49 2.77c.158-.066.33-.103.511-.103h34.667zm0 26.666H4c-.736 0-1.333-.598-1.333-1.333V5.587L20.46 21.008c.251.217.563.326.874.326s.622-.108.874-.326L40.001 5.587V28c0 .736-.598 1.333-1.333 1.333z"/></svg><svg width="20" height="32" viewBox="0 0 20 32" x="96"><path fill="#757575" d="M17 0H3C1.346 0 0 1.346 0 3v26c0 1.654 1.346 3 3 3h14c1.654 0 3-1.346 3-3V3c0-1.654-1.346-3-3-3zM3 2h14c.552 0 1 .448 1 1v21H2V3c0-.552.448-1 1-1zm14 28H3c-.552 0-1-.448-1-1v-3h16v3c0 .552-.448 1-1 1z"/><path fill="#757575" d="M4.707 27.478c.391.365.391.956 0 1.321s-1.024.365-1.414 0c-.391-.365-.391-.956 0-1.321s1.024-.365 1.414 0z"/></svg><svg width="72" height="32" viewBox="0 0 72 32" x="144"><path fill="#f5f4fa" d="M1.067 0h69.867c.589 0 1.067.478 1.067 1.067v29.867c0 .589-.478 1.067-1.067 1.067H1.067C.478 32.001 0 31.523 0 30.934V1.067C0 .478.478 0 1.067 0z"/><path fill="#212121" d="m44.618 19.557-4.925-4.961.547-2.692c.141.055.291.084.442.085h.004c.695.008 1.266-.549 1.274-1.244s-.549-1.266-1.245-1.274c-.695-.008-1.266.549-1.274 1.244-.002.149.023.297.073.437l-2.893.353-4.719-4.744c-.058-.059-.137-.093-.22-.093-.082 0-.16.033-.218.091l-.882.877c-.122.122-.122.318 0 .44l.475.482c-1.839 3.382-1.242 7.57 1.47 10.303.025.024.054.043.085.057-.02.105-.03.212-.03.319v3.609h-3.733c-.859.001-1.555.697-1.556 1.556v.622c0 .172.139.311.311.311h14.311c.172 0 .311-.139.311-.311v-.622c-.001-.859-.697-1.555-1.555-1.556h-3.733v-1.599c.585.123 1.181.185 1.778.187 1.434-.002 2.845-.359 4.107-1.04l.477.48c.058.059.137.093.22.093.082 0 .16-.033.218-.091l.882-.877c.122-.122.122-.318 0-.44zm-4.371-9.254c.243-.242.638-.241.88.002s.241.638-.002.88c-.117.116-.274.181-.439.181h-.002c-.343-.002-.621-.282-.619-.625.001-.165.067-.322.183-.438h-.001zm-.733 2.044-.349 1.718-.686-.69 1.035-1.029zm-.353-.526-1.12 1.113-.866-.871 1.986-.242zm1.508 11.646c.515 0 .933.418.933.933v.311H27.913V24.4c0-.515.418-.933.933-.933h11.822zm-4.355-1.245v.622h-3.111v-.622h3.111zm-3.112-.622v-2.364c0-.755.698-1.369 1.555-1.369s1.556.614 1.556 1.369V21.6h-3.111zm3.734-.989v-1.375c0-1.098-.977-1.991-2.178-1.991-.776-.012-1.502.383-1.914 1.042-2.367-2.493-2.9-6.21-1.329-9.268l10.851 10.913c-1.675.852-3.596 1.092-5.43.679zm6.585-.399L31.238 7.857l.44-.439 4.629 4.655c.002 0 .003.004.006.006l7.65 7.695-.441.439z"/><path fill="#2196f3" d="M34.761 18.489h-.003c-.515-.001-.934.416-.935.932s.417.934.932.935h.003c.515.001.934-.416.935-.932s-.417-.934-.932-.935zm.217 1.154c-.058.058-.138.091-.221.091-.172-.001-.31-.141-.309-.313 0-.082.033-.161.092-.219s.136-.09.218-.091c.172.001.31.141.31.313-.001.082-.033.161-.092.219h.003z"/></svg><svg width="72" height="32" viewBox="0 0 72 32" x="240"><path fill="#f5f4fa" d="M1.067 0h69.867c.589 0 1.067.478 1.067 1.067v29.867c0 .589-.478 1.067-1.067 1.067H1.067C.478 32.001 0 31.523 0 30.934V1.067C0 .478.478 0 1.067 0z"/><path fill="#212121" d="M44.923 15.592c-.001-4.931-3.999-8.927-8.93-8.926s-8.927 3.999-8.926 8.93c.001 3.884 2.512 7.321 6.212 8.503.035.011.072.017.109.017.07 0 .139-.019.2-.055.079-.047.138-.121.165-.208l2.255-7.146c.616-.003 1.113-.505 1.11-1.122s-.505-1.113-1.122-1.11c-.166.001-.329.039-.478.112l-2.978-2.979c-.148-.143-.383-.139-.526.009-.139.144-.139.373 0 .517l2.977 2.98c-.228.466-.098 1.029.313 1.347l-2.148 6.809c-4.245-1.564-6.419-6.273-4.855-10.518s6.273-6.419 10.519-4.855c4.245 1.564 6.419 6.273 4.855 10.518-.764 2.074-2.334 3.752-4.353 4.651l-.232-1.093c-.042-.201-.24-.329-.441-.287-.063.014-.122.043-.171.086L36.24 23.77c-.154.137-.167.372-.031.525.045.05.102.087.165.107l2.858.912c.195.063.405-.045.468-.24.02-.062.023-.128.01-.191l-.228-1.073c3.304-1.393 5.449-4.633 5.442-8.219zm-8.928-.372c.205 0 .372.167.372.372s-.167.372-.372.372c-.206 0-.372-.166-.372-.372s.166-.372.372-.372zm1.226 8.671 1.274-1.136.352 1.657-1.626-.52z"/><path fill="#2196f3" d="M35.623 8.525v.744c0 .206.166.372.372.372s.372-.166.372-.372v-.744c0-.205-.167-.372-.372-.372s-.372.167-.372.372zM28.928 15.22c-.206 0-.372.167-.372.372s.166.372.372.372h.744c.205 0 .372-.166.372-.372s-.167-.372-.372-.372h-.744zM43.063 15.964c.205 0 .372-.166.372-.372s-.166-.372-.372-.372h-.744c-.206 0-.372.167-.372.372s.166.372.372.372h.744z"/></svg><svg width="72" height="32" viewBox="0 0 72 32" x="336"><path fill="#f5f4fa" d="M1.067 0h69.867c.589 0 1.067.478 1.067 1.067v29.867c0 .589-.478 1.067-1.067 1.067H1.067C.478 32.001 0 31.523 0 30.934V1.067C0 .478.478 0 1.067 0z"/><path fill="#2196f3" d="M35.373 15.396h.622v2.799h-.622v-2.799zM37.861 16.64h.622v1.555h-.622V16.64zM32.886 17.573h.622v.622h-.622v-.622zM31.02 17.262h.622v.933h-.622v-.933z"/><path fill="#212121" d="M27.599 23.17h14.926c.515 0 .933-.418.933-.933v-1.244c0-.515-.418-.933-.933-.933h-.311v-7.754l1.766-1.673c.41.202.906.079 1.174-.291s.231-.88-.089-1.207-.829-.375-1.205-.115c-.376.26-.51.754-.317 1.168l-1.331 1.262v-.717c0-.515-.418-.933-.933-.933H28.841c-.515 0-.933.418-.933.933v9.328h-.311c-.515 0-.933.418-.933.933v1.244c0 .515.418.933.933.933zM44.391 9.488c.172 0 .311.139.311.311s-.139.311-.311.311-.311-.139-.311-.311.139-.311.311-.311zm-15.859 1.244c0-.172.139-.311.311-.311h12.438c.172 0 .311.139.311.311v1.306l-.622.591v-1.275c0-.172-.139-.311-.311-.311H29.465c-.172 0-.311.139-.311.311v7.774c0 .172.139.311.311.311h11.194c.171 0 .311-.139.311-.311v-5.643l.622-.589v7.165h-13.06v-9.328zm2.799 4.042c-.421-.001-.79.279-.902.685s.061.836.423 1.05c.362.215.822.161 1.125-.132l1.081.542c.126.063.278.033.371-.072l2.298-2.585 2.259 1.692c.121.091.29.081.4-.023l1.963-1.859v4.743H29.777v-7.152h10.572v1.552l-2.2 2.083-2.278-1.707c-.129-.097-.311-.079-.419.042l-2.329 2.621-.871-.435c.006-.037.01-.075.012-.113 0-.515-.418-.933-.933-.933zm.311.933c0 .172-.139.311-.311.311s-.311-.139-.311-.311.139-.311.311-.311.311.139.311.311zm1.865 4.975h3.11v.311c0 .172-.139.311-.311.311h-2.488c-.172 0-.311-.139-.311-.311v-.311zm-6.218.311c0-.172.139-.311.311-.311h5.286v.311c0 .515.418.933.933.933h2.488c.515 0 .933-.418.933-.933v-.311h5.286c.172 0 .311.139.311.311v1.244c0 .172-.139.311-.311.311H27.6c-.172 0-.311-.139-.311-.311v-1.244z"/></svg><svg width="72" height="32" viewBox="0 0 72 32" x="432"><path fill="#f5f4fa" d="M1.067 0h69.867c.589 0 1.067.478 1.067 1.067v29.867c0 .589-.478 1.067-1.067 1.067H1.067C.478 32.001 0 31.523 0 30.934V1.067C0 .478.478 0 1.067 0z"/><path fill="#2196f3" d="M45.318 9.306c-.037-.112-.134-.194-.251-.212l-1.114-.162-.499-1.01c-.105-.213-.453-.213-.558 0l-.499 1.01-1.115.162c-.117.017-.214.099-.251.212s-.006.236.079.319l.807.786-.19 1.11c-.02.117.028.235.123.304.097.07.223.079.328.024l.997-.524.997.524c.046.024.095.036.145.036.064 0 .129-.02.183-.059.096-.07.144-.188.123-.304l-.19-1.11.807-.786c.085-.083.115-.206.079-.319zm-1.436.774c-.073.071-.107.175-.089.275l.111.65-.583-.307c-.045-.024-.095-.036-.145-.036s-.099.012-.145.036l-.583.307.111-.65c.018-.101-.016-.204-.089-.275l-.473-.46.653-.095c.101-.015.189-.078.234-.17l.292-.591.292.591c.046.092.133.156.234.17l.653.095-.472.46zM41.911 18.638h-.622v.622h.622v-.622zM41.911 19.882h-.622v.622h.622v-.622zM42.533 19.26h-.622v.622h.622v-.622zM41.289 19.26h-.622v.622h.622v-.622zM39.733 22.06h-.622v.622h.622v-.622zM39.733 23.305h-.622v.622h.622v-.622zM40.356 22.682h-.622v.622h.622v-.622zM39.111 22.682h-.622v.622h.622v-.622zM36 20.816h-.622v.622H36v-.622zM36 22.06h-.622v.622H36v-.622zM36.622 21.438H36v.622h.622v-.622zM35.378 21.438h-.622v.622h.622v-.622zM30.089 10.238h-.622v.622h.622v-.622zM30.089 11.482h-.622v.622h.622v-.622zM30.711 10.86h-.622v.622h.622v-.622zM29.467 10.86h-.622v.622h.622v-.622z"/><path fill="#212121" d="M41.084 14.926c-.168-.226-.414-.372-.693-.411-.281-.04-.558.034-.782.205l-.73.56-1.107.827-.792-.315c1.413-.634 2.4-2.047 2.4-3.687 0-2.23-1.822-4.044-4.061-4.044s-4.061 1.814-4.061 4.044c0 .808.242 1.56.653 2.192l-1.612-.014h-.003c-.005 0-.009.002-.014.003-.031.001-.061.008-.091.018-.007.003-.015.004-.022.008-.004.002-.007.002-.011.004l-1.886.931h-.001l-1.104.531c-.012.005-.025.012-.037.021-.44.293-.59.869-.349 1.339.129.25.347.434.616.519.104.032.209.048.315.048.169 0 .336-.041.49-.123l.81-.431 1.321-.682.791-.005-3.174 3.159s-.001 0-.001.001l-.781.778c-.184.184-.286.427-.286.687s.102.504.286.688c.19.189.439.283.688.283s.498-.095.689-.283l.767-.764 1.015-.758.525.523-1.027 1.023c-.001 0-.001 0-.001.001l-.781.778c-.185.184-.286.427-.286.687s.102.504.286.688c.189.189.439.283.688.283s.499-.095.689-.283l2.031-2.022s0-.001.001-.001l.589-.583-.002-.002c.004-.004.009-.005.013-.009l3.013-3.301 2.025.288c.015.002.029.003.044.003.038 0 .074-.009.109-.022.01-.004.019-.009.029-.014.011-.006.023-.009.034-.016l1.874-1.244c.007-.005.011-.012.017-.017.007-.006.017-.008.024-.015l.742-.695c.386-.362.439-.954.124-1.378zm-13.175 2.107c-.101.054-.216.065-.326.03s-.197-.108-.249-.209c-.094-.183-.039-.406.125-.526l.766-.369.185.539.077.226-.579.308zm2.04-1.067-.903.467-.149-.436-.107-.313 1.182-.584-.023.866zm8.808-3.862c0 .536-.128 1.041-.349 1.493l-2.439-1.108c-.025-.334-.199-.627-.46-.81l.854-2.835c1.387.441 2.394 1.735 2.394 3.26zm-6.876 0c0-1.887 1.542-3.422 3.438-3.422.147 0 .292.012.435.03l-.835 2.773c-.011 0-.022-.003-.033-.003-.602 0-1.093.488-1.093 1.089s.49 1.089 1.093 1.089c.405 0 .755-.224.944-.551l2.253 1.024c-.627.844-1.63 1.394-2.763 1.394-1.896 0-3.438-1.535-3.438-3.422zm3.474.467c0 .257-.211.467-.47.467s-.47-.209-.47-.467.211-.467.47-.467.47.209.47.467zm-7.25 8.764c-.138.137-.361.136-.498 0-.066-.066-.103-.154-.103-.247s.036-.18.103-.246l.561-.559.497.494-.559.557zm1.874 2.178c-.138.137-.361.137-.499 0-.066-.066-.103-.154-.103-.247s.036-.18.103-.246l.562-.559.497.494-.56.557zm2.031-2.023s-.001 0-.001.001l-1.03 1.027-.497-.494L31.511 21s.001 0 .001-.001c.023-.023.038-.051.052-.079.004-.008.012-.015.015-.023.01-.024.011-.05.015-.075.002-.014.008-.028.008-.042 0-.021-.007-.041-.012-.062-.004-.019-.004-.038-.011-.056-.012-.029-.032-.055-.053-.08-.006-.007-.008-.016-.015-.022h-.001c-.001 0 0-.001-.001-.001l-.937-.933c-.01-.01-.023-.014-.034-.022-.017-.013-.032-.025-.051-.034s-.036-.014-.055-.019c-.02-.006-.039-.01-.06-.012-.019-.001-.037.001-.055.003-.021.002-.041.005-.061.012s-.037.016-.055.026c-.012.007-.025.009-.035.017l-1.035.772-.525-.523 1.399-1.392 2.543 2.502-.541.536zm3.978-4.093c-.009-.001-.017.002-.026.002-.023-.001-.044 0-.067.004-.018.003-.034.007-.051.012-.02.007-.038.016-.056.027s-.033.022-.049.036c-.007.007-.017.01-.023.017l-2.741 3.002-2.525-2.483 1.653-1.644c.122-.121.122-.318.001-.44-.061-.061-.142-.091-.222-.091l-1.294.008.016-.938 1.811.016c.738.755 1.767 1.226 2.906 1.226.255 0 .504-.026.746-.072.023.019.046.038.075.049l1.406.56.089.442.104.516-1.752-.249zm2.357.103-.182-.909.844-.63.552.733-1.214.806zm2.19-1.651-.489.458-.543-.721.485-.372c.091-.07.205-.098.317-.083.113.016.212.075.28.166.126.17.105.408-.05.553z"/><path fill="#212121" d="m34.601 17.484-1.25-1.244c-.121-.121-.318-.121-.439 0l-1.25 1.244c-.058.059-.091.138-.091.221s.033.162.091.221l1.25 1.244c.061.06.14.091.219.091s.159-.03.219-.091l1.25-1.244c.058-.058.092-.138.092-.221s-.033-.162-.092-.221zm-1.469 1.026-.809-.805.809-.805.809.805-.809.805zM36.679 9.625l-.15.604c.041.01 1.014.264 1.014 1.254h.622c0-1.177-.972-1.73-1.486-1.858zM38.165 12.104h-.622v.622h.622v-.622z"/></svg><svg width="32" height="32" viewBox="0 0 32 32" x="528"><path fill="#fff" opacity=".1" d="M32 16c0 4.418-1.791 8.418-4.686 11.314S20.419 32 16 32s-8.418-1.791-11.314-4.686C1.791 24.419 0 20.419 0 16S1.791 7.582 4.686 4.686C7.581 1.791 11.581 0 16 0s8.418 1.791 11.314 4.686C30.209 7.581 32 11.581 32 16z"/><path fill="#fff" d="M23.269 23.273v-.001h.004v-5.335c0-2.61-.562-4.62-3.613-4.62-1.467 0-2.451.805-2.853 1.568h-.042v-1.324h-2.893v9.711h3.012v-4.809c0-1.266.24-2.49 1.808-2.49 1.545 0 1.568 1.445 1.568 2.572v4.728h3.009zM8.967 13.562h3.016v9.711H8.967v-9.711zM10.474 8.727c-.964 0-1.747.782-1.747 1.747s.782 1.763 1.747 1.763c.964 0 1.747-.799 1.747-1.763s-.783-1.747-1.747-1.747z"/></svg><svg width="32" height="32" viewBox="0 0 32 32" x="576"><path fill="#fff" opacity=".1" d="M32 16c0 4.418-1.791 8.418-4.686 11.314S20.419 32 16 32s-8.418-1.791-11.314-4.686C1.791 24.419 0 20.419 0 16S1.791 7.582 4.686 4.686C7.581 1.791 11.581 0 16 0s8.418 1.791 11.314 4.686C30.209 7.581 32 11.581 32 16z"/><path fill="#fff" d="M18.422 11.142h1.328V8.829c-.229-.031-1.017-.102-1.935-.102-1.915 0-3.226 1.204-3.226 3.418v2.037h-2.113v2.585h2.113v6.505h2.59v-6.505h2.027l.322-2.585h-2.35v-1.781c.001-.747.202-1.259 1.243-1.259z"/></svg><svg width="32" height="32" viewBox="0 0 32 32" x="624"><path fill="#2196f3" d="M32 16c0 4.418-1.791 8.418-4.686 11.314S20.419 32 16 32s-8.418-1.791-11.314-4.686C1.791 24.419 0 20.419 0 16S1.791 7.582 4.686 4.686C7.581 1.791 11.581 0 16 0s8.418 1.791 11.314 4.686C30.209 7.581 32 11.581 32 16z"/><path fill="#fff" d="M23.273 11.49c-.541.237-1.117.394-1.718.471.618-.369 1.09-.949 1.312-1.648-.576.344-1.213.586-1.891.722-.547-.583-1.327-.944-2.178-.944-1.651 0-2.98 1.34-2.98 2.983 0 .236.02.464.069.68-2.479-.121-4.673-1.309-6.146-3.119-.257.446-.408.957-.408 1.507 0 1.033.532 1.948 1.325 2.478-.479-.009-.949-.148-1.347-.367v.033c0 1.449 1.034 2.653 2.389 2.93-.243.066-.507.098-.782.098-.191 0-.384-.011-.565-.051.386 1.181 1.483 2.049 2.786 2.077-1.015.794-2.303 1.272-3.697 1.272-.245 0-.479-.011-.714-.041 1.321.852 2.886 1.338 4.575 1.338 5.487 0 8.487-4.545 8.487-8.485 0-.132-.005-.259-.011-.385.592-.42 1.089-.944 1.495-1.548z"/></svg><svg width="32" height="32" viewBox="0 0 32 32" x="672"><path fill="#fff" opacity=".1" d="M32 16c0 4.418-1.791 8.418-4.686 11.314S20.419 32 16 32s-8.418-1.791-11.314-4.686C1.791 24.419 0 20.419 0 16S1.791 7.582 4.686 4.686C7.581 1.791 11.581 0 16 0s8.418 1.791 11.314 4.686C30.209 7.581 32 11.581 32 16z"/><path fill="#fff" d="M23.258 13.004c-.034-.773-.159-1.304-.338-1.765-.185-.489-.469-.926-.841-1.29-.364-.369-.804-.656-1.287-.838-.463-.179-.992-.304-1.764-.338-.779-.037-1.026-.046-3.001-.046s-2.222.009-2.998.043c-.773.034-1.304.159-1.764.338-.489.185-.926.469-1.29.841-.369.364-.656.804-.838 1.287-.179.463-.304.992-.338 1.764-.037.779-.045 1.026-.045 3.001s.008 2.222.043 2.998c.034.773.159 1.304.338 1.765.185.489.472.926.841 1.29.364.369.804.656 1.287.838.463.179.992.304 1.765.338.776.034 1.023.043 2.998.043s2.222-.008 2.998-.043c.773-.034 1.304-.159 1.764-.338.978-.378 1.75-1.151 2.128-2.128.179-.463.304-.992.338-1.765.034-.776.043-1.023.043-2.998s-.003-2.222-.037-2.998zm-1.309 5.938c-.031.71-.151 1.094-.25 1.35-.244.634-.747 1.137-1.381 1.381-.256.099-.642.219-1.35.25-.767.034-.997.043-2.938.043s-2.174-.008-2.938-.043c-.71-.031-1.094-.15-1.35-.25-.315-.116-.602-.301-.835-.543-.242-.236-.426-.52-.543-.835-.099-.256-.219-.642-.25-1.35-.034-.767-.043-.997-.043-2.938s.008-2.174.043-2.938c.031-.71.151-1.094.25-1.35.117-.315.301-.602.546-.835.236-.242.52-.426.835-.543.256-.099.642-.219 1.35-.25.767-.034.997-.043 2.938-.043 1.944 0 2.174.008 2.938.043.71.031 1.094.151 1.35.25.315.116.602.301.835.543.241.236.426.52.543.835.099.256.219.642.25 1.35.034.767.043.997.043 2.938s-.009 2.168-.043 2.935z"/><path fill="#fff" d="M16.027 12.265c-2.063 0-3.736 1.674-3.736 3.737s1.674 3.736 3.736 3.736c2.063 0 3.737-1.674 3.737-3.736s-1.674-3.737-3.737-3.737zm0 6.16c-1.338 0-2.424-1.085-2.424-2.424s1.086-2.424 2.424-2.424c1.338 0 2.424 1.085 2.424 2.424s-1.085 2.424-2.424 2.424zM20.784 12.117c0 .482-.391.872-.872.872s-.872-.391-.872-.872c0-.482.391-.872.872-.872s.872.39.872.872z"/></svg><svg width="59" height="32" viewBox="0 0 59 32" y="48"><path fill="#afb1b8" d="M29.713 15.098c-.154-.205-.228-.448-.21-.692v-1.003c0-.307.07-.541.209-.701s.379-.239.718-.239c.319 0 .546.068.679.204.146.174.217.386.201.6v.236h-.571v-.239c.002-.078-.003-.156-.017-.234-.008-.053-.037-.102-.082-.139-.059-.04-.132-.059-.207-.054-.078-.005-.156.015-.217.057-.05.041-.083.095-.095.153-.016.082-.024.165-.022.248v1.217c-.009.117.016.235.073.342.028.036.068.065.114.083s.097.025.147.019c.073.005.146-.015.202-.055.047-.04.076-.092.085-.148.013-.081.019-.162.018-.244v-.247h.571v.225c.016.223-.053.445-.197.63-.131.149-.355.223-.683.223s-.577-.08-.717-.245zM32.089 15.109c-.144-.156-.216-.384-.216-.685v-1.055c0-.298.072-.523.216-.676s.385-.229.723-.229c.336 0 .575.076.72.229s.217.379.217.676v1.055c0 .298-.073.526-.22.684s-.385.236-.717.236c-.332 0-.578-.08-.723-.235zm.989-.253c.052-.098.075-.205.069-.312v-1.292c.007-.105-.017-.21-.067-.306-.029-.037-.069-.066-.117-.084s-.099-.024-.151-.018c-.051-.006-.103 0-.151.018s-.088.047-.117.084c-.052.095-.075.201-.069.306v1.298c-.007.107.016.215.069.312.033.033.074.059.12.077s.096.027.147.027c.051 0 .101-.009.147-.027s.087-.044.12-.077v-.006zM34.436 12.495h.614l.462 1.946.473-1.946h.598l.061 2.809h-.442l-.047-1.952-.456 1.952h-.354l-.473-1.96-.044 1.96h-.447l.056-2.809zM37.332 12.495h.957c.551 0 .827.266.827.798 0 .509-.29.764-.871.763h-.326v1.249h-.591l.003-2.809zm.818 1.201c.058.006.118.002.174-.014s.107-.041.151-.075c.068-.095.098-.206.085-.317.003-.086-.007-.171-.029-.255-.008-.028-.023-.054-.043-.077s-.046-.042-.074-.057c-.082-.034-.173-.049-.264-.045h-.229v.839h.229zM39.968 12.495h.635l.651 2.809h-.551l-.129-.648h-.566l-.133.648h-.559l.651-2.809zm.543 1.836-.221-1.179-.221 1.179h.442zM41.78 12.495h.414l.792 1.603v-1.603h.49v2.809h-.393l-.797-1.673v1.673h-.507l.001-2.809zM44.624 14.233l-.658-1.734h.554l.402 1.114.377-1.114h.543l-.65 1.734v1.071h-.567v-1.071zM30.625 16.533v.147h-.482v1.142h-.202V16.68h-.484v-.147h1.169zM32.137 17.821h-.156c-.016.001-.031-.003-.044-.012-.012-.007-.021-.018-.026-.03l-.139-.306h-.669l-.139.306c-.004.013-.011.025-.021.035-.012.009-.028.013-.044.012h-.156l.591-1.288h.206l.598 1.283zm-.979-.478h.558l-.236-.524c-.017-.04-.032-.08-.044-.121-.008.024-.015.048-.022.068l-.021.054-.234.523zM33.155 17.695c.037.002.074.002.111 0 .032-.003.064-.008.095-.015.029-.006.057-.014.085-.023.026-.009.052-.02.079-.032v-.29h-.236c-.006 0-.012 0-.017-.002s-.011-.004-.015-.008c-.004-.003-.007-.006-.009-.011s-.003-.008-.003-.013v-.099h.458v.494c-.037.023-.077.044-.118.061s-.086.033-.131.044c-.048.012-.098.021-.148.027-.057.006-.115.008-.172.008-.102.001-.203-.015-.298-.048-.088-.031-.169-.077-.236-.135-.066-.059-.118-.128-.152-.204-.037-.085-.056-.176-.054-.267-.001-.092.017-.183.053-.269.034-.076.086-.146.152-.204s.148-.103.236-.134c.101-.033.209-.049.317-.048.055 0 .11.004.164.011.048.007.095.018.141.033.041.013.081.03.118.051s.071.043.103.067l-.057.08c-.004.007-.011.013-.019.018s-.017.007-.027.007c-.013 0-.026-.004-.037-.01-.018-.008-.037-.018-.058-.031-.025-.014-.052-.025-.079-.035-.035-.012-.072-.022-.109-.029-.05-.008-.1-.012-.15-.011-.078-.001-.155.011-.228.036-.066.023-.125.058-.174.102-.049.046-.086.101-.11.16-.053.14-.053.29 0 .43.026.061.066.116.118.162.048.044.107.079.173.102.075.022.155.031.234.026zM35.039 17.674h.645v.147h-.842v-1.288h.202l-.005 1.142zM36.355 17.821h-.202v-1.288h.202v1.288zM37.106 16.539c.012.006.023.014.031.023l.864.971c-.001-.015-.001-.031 0-.046V16.527h.176v1.294h-.102c-.015.001-.03-.001-.044-.007-.012-.006-.023-.015-.032-.024l-.863-.97v1.002h-.169v-1.289h.105c.011 0 .023.002.033.006zM39.665 16.533v.142h-.716v.425h.58v.137h-.58v.44h.716v.142h-.924v-1.285h.924zM18.491 8.576l8.972 2.199v7.707l-8.972-2.198V8.576zm-.575-.657v8.739l10.122 2.482v-8.738L17.916 7.919z"/><path fill="#afb1b8" d="m23.34 23.197-10.123-2.484v-8.739l10.123 2.483v8.74z"/><path fill="#afb1b8" d="m18.083 8.477 8.855 2.172-3.766 3.252-8.856-2.173 3.767-3.251zm-.167-.558-4.698 4.056 10.123 2.483 4.697-4.056-10.122-2.483zM23.91 22.706l4.127-3.564-4.127-1.013v4.577z"/></svg><svg width="59" height="32" viewBox="0 0 59 32" x="96" y="48"><path fill="#afb1b8" d="M20.437 21.125c.085.096.13.216.128.34.004.081-.011.161-.045.235s-.086.141-.152.194c-.165.114-.369.169-.575.157h-1.01v-2.154h.989c.195-.012.389.039.548.143.064.049.114.111.148.181s.048.146.044.222c.006.119-.035.236-.115.329-.077.086-.183.145-.301.168.134.022.255.088.341.184zm-1.184-.325h.423c.096.006.192-.019.269-.072.032-.026.056-.059.072-.096s.022-.076.019-.115c.003-.039-.003-.078-.019-.114s-.04-.069-.071-.096c-.08-.054-.178-.08-.277-.073h-.416v.565zm.733.826c.034-.027.061-.061.078-.099s.025-.079.022-.12c.003-.042-.005-.083-.023-.121s-.045-.072-.079-.1c-.083-.056-.184-.084-.287-.078h-.444v.592h.449c.101.005.201-.021.284-.075zM22.459 22.051l-.55-.842h-.207v.842h-.473v-2.154h.896c.226-.014.449.051.624.183.125.117.201.271.213.434s-.04.325-.146.457c-.111.116-.262.193-.427.219l.586.861h-.515zm-.757-1.135h.387c.269 0 .403-.109.403-.326.003-.044-.005-.089-.022-.131s-.043-.08-.077-.111c-.085-.065-.194-.096-.305-.087h-.392l.005.655zM25.047 21.618h-.943l-.167.433h-.496l.866-2.129h.537l.863 2.129h-.496l-.163-.433zm-.126-.327-.345-.909-.345.909h.689zM28.286 22.051h-.47l-1.054-1.464v1.464h-.469v-2.154h.469l1.054 1.473v-1.473h.47v2.154zM30.968 21.536c-.097.163-.245.295-.425.38-.205.095-.432.141-.661.136h-.837v-2.154h.837c.229-.005.455.04.661.133.18.083.328.214.425.376.097.175.147.369.147.565s-.05.39-.147.565zm-.538-.052c.134-.143.208-.325.208-.514s-.074-.371-.208-.514c-.162-.13-.374-.195-.588-.183h-.326v1.394h.326c.215.012.426-.053.588-.183zM25.341 7.919s6.066 2.097 5.937 5.131v5.132s-6.061-2.098-5.935-5.132l-.002-5.131zM36.682 16.98c1.146-.722 2.471-1.169 3.854-1.3v-1.607c-1.594.562-2.946 1.582-3.854 2.907z"/><path fill="#afb1b8" d="M35.994 17.464c.937-1.729 2.563-3.063 4.542-3.727V9.108s-8.638 2.987-8.456 7.308v7.307s.385-.134.99-.384c0-.234 0-.469.028-.706.179-2.006 1.22-3.865 2.896-5.168z"/><path fill="#afb1b8" d="M35.172 20.178c.045-.507.146-1.008.302-1.496-1.043 1.125-1.675 2.522-1.806 3.993-.013.139-.02.278-.023.421.491-.216 1.062-.485 1.661-.802-.153-.696-.198-1.408-.134-2.116zM35.515 20.205c-.057.64-.022 1.284.107 1.916 2.36-1.293 5.012-3.291 4.91-5.705v-.21c-1.686.173-3.264.848-4.49 1.921-.287.665-.464 1.366-.526 2.079z"/></svg><svg width="59" height="32" viewBox="0 0 59 32" x="192" y="48"><path fill="#2196f3" d="M19.529 12.905h-.001c-.834 0-1.51.601-1.51 1.342v.001c0 .741.676 1.342 1.51 1.342h.001c.834 0 1.51-.601 1.51-1.342v-.001c0-.741-.676-1.342-1.51-1.342zM30.677 12.476c-.002-1.03-.464-2.016-1.283-2.744s-1.929-1.138-3.088-1.141c-1.159.002-2.27.412-3.089 1.14s-1.281 1.715-1.283 2.745v5.678s8.742-.865 8.743-5.677v-.001zM14.957 20.017c.002.716.323 1.403.893 1.91s1.342.792 2.148.794c.806-.002 1.578-.288 2.148-.794s.891-1.193.893-1.909v-3.951s-6.083.603-6.083 3.95zm3.041.708c-.158 0-.311-.041-.442-.119s-.233-.188-.293-.318c-.06-.129-.076-.272-.045-.409s.107-.263.218-.362c.111-.099.253-.166.408-.194s.315-.013.46.04c.146.054.27.144.357.261s.134.253.134.393c0 .093-.02.186-.06.272s-.098.165-.172.23c-.074.066-.162.118-.259.154s-.201.054-.305.054v-.003zM24.145 20.335h-.587v.606h-.306v-1.484h.966v.248h-.66v.383h.587v.247zm1.47-.102c0 .146-.026.274-.077.384s-.126.195-.222.255-.206.09-.33.09c-.123 0-.233-.03-.329-.089s-.171-.143-.224-.253c-.053-.11-.08-.236-.081-.379v-.073c0-.146.026-.274.078-.385s.127-.197.223-.256c.096-.06.207-.09.33-.09s.233.03.329.09c.096.059.171.144.223.256s.079.239.079.384v.066zm-.31-.067c0-.156-.028-.274-.084-.355s-.135-.121-.238-.121c-.103 0-.182.04-.237.12s-.084.196-.085.351v.072c0 .151.028.269.084.353s.136.125.241.125c.103 0 .181-.04.236-.12s.083-.198.084-.353v-.072zm1.301.386c0-.058-.02-.102-.061-.133s-.114-.064-.22-.098c-.106-.035-.19-.069-.252-.102-.168-.091-.253-.214-.253-.368 0-.08.022-.151.067-.214s.11-.112.195-.148c.085-.035.18-.053.285-.053s.2.019.283.058c.083.038.147.092.193.162s.069.149.069.238h-.306c0-.068-.021-.121-.064-.158s-.103-.057-.18-.057c-.075 0-.133.016-.174.048s-.062.073-.062.124c0 .048.024.089.072.121s.121.063.215.092c.174.052.301.117.38.195s.119.174.119.289c0 .128-.049.229-.146.303s-.228.109-.392.109c-.114 0-.218-.021-.312-.062s-.165-.099-.215-.172c-.049-.073-.073-.157-.073-.253h.307c0 .164.098.246.293.246.073 0 .129-.015.17-.044s.061-.071.061-.124zm1.632-.847h-.454v1.236h-.306v-1.236h-.448v-.248h1.209v.248zm1.068.594h-.587v.397h.689v.246h-.995v-1.484h.993v.248h-.687v.354h.587v.239zm.83.099h-.244v.543h-.306v-1.484h.551c.175 0 .31.039.406.117s.143.189.143.331c0 .101-.022.186-.066.254s-.11.121-.199.161l.321.606v.014h-.328l-.278-.543zm-.243-.247h.247c.077 0 .136-.019.178-.058s.063-.093.063-.162c0-.07-.02-.125-.06-.165s-.1-.06-.182-.06h-.246v.445zm1.852.268v.523h-.306v-1.484h.579c.111 0 .209.02.294.061s.15.099.196.174c.045.075.068.16.068.256 0 .145-.05.26-.15.344s-.237.125-.413.125h-.268zm0-.248h.273c.081 0 .142-.019.184-.057s.064-.092.064-.163c0-.073-.021-.131-.064-.176s-.102-.068-.177-.069h-.28v.466zm1.934.128h-.587v.397h.689v.246h-.995v-1.484h.993v.248h-.687v.354h.587v.239zm1.419-.594h-.455v1.236h-.306v-1.236h-.448v-.248h1.209v.248zm1.068.594h-.587v.397h.689v.246h-.994v-1.484h.992v.248h-.687v.354h.587v.239zm.83.099h-.243v.543h-.306v-1.484h.551c.175 0 .31.039.406.117s.143.189.143.331c0 .101-.022.186-.066.254s-.11.121-.199.161l.321.606v.014h-.328l-.278-.543zm-.243-.247H37c.077 0 .136-.019.178-.058s.063-.093.063-.162c0-.07-.02-.125-.06-.165s-.1-.06-.182-.06h-.246v.445zm1.796.401c0-.058-.021-.102-.061-.133s-.114-.064-.22-.098c-.106-.035-.19-.069-.251-.102-.169-.091-.253-.214-.253-.368 0-.08.022-.151.067-.214s.111-.112.195-.148c.085-.035.18-.053.285-.053.106 0 .2.019.283.058s.147.092.192.162c.046.07.07.149.07.238h-.306c0-.068-.022-.121-.064-.158s-.103-.057-.18-.057c-.075 0-.133.016-.174.048s-.062.073-.062.124c0 .048.024.089.072.121s.121.063.215.092c.174.052.301.117.38.195s.119.174.119.289c0 .128-.049.229-.146.303s-.228.109-.392.109c-.114 0-.218-.021-.312-.062s-.165-.099-.215-.172c-.049-.073-.073-.157-.073-.253h.307c0 .164.098.246.294.246.073 0 .129-.015.17-.044s.061-.071.061-.124z"/></svg><svg width="59" height="32" viewBox="0 0 59 32" x="288" y="48"><path fill="#afb1b8" d="M23.794 22.644c.006 0 .011.001.016.003s.01.005.013.008l.076.073c-.059.059-.132.106-.213.138-.096.035-.199.052-.303.049-.097.002-.194-.014-.285-.046-.081-.03-.154-.074-.214-.13-.061-.058-.108-.127-.138-.201-.033-.083-.049-.17-.048-.258-.001-.088.016-.176.052-.259.033-.075.083-.143.147-.201.065-.057.142-.101.228-.131.093-.031.193-.047.293-.046.093-.002.186.012.272.042.075.028.144.068.204.116l-.064.077c-.004.005-.01.01-.016.014-.007.004-.017.006-.026.006s-.019-.003-.027-.008l-.034-.021-.047-.026c-.02-.01-.042-.018-.064-.026-.028-.009-.057-.016-.086-.021-.037-.006-.075-.009-.113-.008-.072-.001-.144.011-.21.035-.062.022-.119.055-.165.097-.047.045-.084.098-.107.155-.027.066-.04.135-.039.204-.001.071.012.141.039.208.023.057.059.109.105.154.043.042.097.075.157.096.062.022.128.034.195.033.039.001.077-.002.116-.007.063-.007.122-.026.175-.055.027-.015.052-.032.075-.051.01-.008.023-.013.036-.013zM25.984 22.28c.001.087-.016.174-.051.256-.031.074-.08.142-.143.199s-.14.101-.224.131c-.186.062-.391.062-.577 0-.084-.03-.16-.074-.223-.131-.063-.058-.112-.126-.144-.201-.068-.166-.068-.347 0-.513.032-.075.081-.143.144-.202.064-.055.139-.098.223-.126.185-.063.391-.063.577 0 .084.03.16.074.224.131s.111.125.143.199c.035.082.053.17.051.258zm-.199 0c.002-.07-.011-.14-.036-.206-.021-.057-.056-.109-.101-.154-.044-.042-.099-.076-.16-.097-.135-.045-.284-.045-.419 0-.061.022-.116.055-.16.097-.046.044-.081.097-.102.154-.048.134-.048.278 0 .412.021.057.056.11.102.154.045.042.099.075.16.096.135.044.284.044.419 0 .061-.021.116-.054.16-.096.045-.045.08-.097.101-.154.025-.066.038-.136.036-.206zM27.479 22.496l.02.046c.008-.017.014-.031.022-.046s.015-.031.025-.045l.485-.765c.009-.013.018-.021.027-.024.013-.003.026-.005.04-.004h.143v1.245h-.17V21.949c0-.014-.001-.029 0-.043l-.487.776c-.006.012-.016.021-.029.028s-.027.01-.042.01h-.027c-.015 0-.029-.003-.042-.01s-.022-.017-.028-.028l-.502-.781v.999h-.164v-1.242h.143c.013-.001.027.001.04.004.012.005.021.014.027.024l.495.766c.01.014.018.029.025.044zM29.302 22.434v.466h-.19v-1.243h.423c.08-.001.159.008.236.027.061.015.118.042.167.077.042.034.075.075.095.122.022.051.033.105.032.159.001.055-.011.109-.035.159-.023.048-.058.09-.102.124-.049.037-.106.066-.168.082-.074.021-.151.03-.229.029l-.23-.003zm0-.134h.23c.05.001.099-.006.147-.019.039-.011.075-.03.106-.054.029-.023.051-.051.064-.082.015-.033.023-.069.023-.105.002-.035-.004-.069-.019-.101s-.037-.061-.066-.085c-.072-.049-.163-.073-.255-.067h-.23v.512zM31.852 22.902h-.15c-.015 0-.03-.004-.042-.012-.011-.008-.019-.018-.025-.029l-.129-.301h-.648l-.134.301c-.005.011-.013.021-.024.028-.012.008-.027.013-.043.012h-.15l.569-1.245h.197l.577 1.245zm-.939-.463h.535l-.226-.507c-.017-.038-.032-.077-.043-.117l-.022.065c-.007.02-.014.038-.021.053l-.224.506zM32.671 21.662c.011.005.021.013.028.022l.83.939v-.967h.17v1.245h-.095c-.013 0-.027-.002-.039-.007s-.022-.014-.03-.023l-.829-.938c.001.014.001.029 0 .043s0 .026 0 .038v.887h-.17v-1.245h.101c.012 0 .023.002.034.006zM35.097 22.407v.494h-.19v-.494l-.525-.75h.17c.015-.001.029.003.041.011.01.008.019.017.026.028l.328.484c.013.021.025.04.034.058s.017.035.024.053l.025-.054c.009-.02.02-.039.032-.057l.323-.487c.007-.01.015-.019.025-.026.011-.009.026-.013.041-.012h.172l-.526.753zM27.385 19.567c.082.009.166.017.25.023 1.28-.497 2.362-1.311 3.112-2.34s1.134-2.227 1.105-3.445l-1.41-1.225c.287 1.296.153 2.637-.387 3.871s-1.465 2.313-2.67 3.117z"/><path fill="#afb1b8" d="m26.881 19.51.038.007c1.288-.801 2.271-1.919 2.82-3.209s.64-2.695.261-4.031l-2.009-1.745c.812 1.434 1.139 3.04.943 4.629s-.908 3.098-2.053 4.35zM33.693 15.244c-.341 1.338-1.17 2.545-2.363 3.441-.349.263-.724.498-1.123.7.972-.248 1.865-.687 2.61-1.282s1.324-1.332 1.69-2.152l-.815-.707z"/><path fill="#afb1b8" d="m33.374 15.047-1.16-1.008c-.022 1.149-.398 2.272-1.089 3.252s-1.671 1.781-2.838 2.321h.006c.26 0 .52-.014.779-.04 1.091-.387 2.055-1.003 2.806-1.792s1.265-1.728 1.497-2.732zM27.049 9.795l-1.384-1.204c-1.237.415-2.301 1.145-3.052 2.095s-1.156 2.074-1.159 3.226c.005 1.273.498 2.508 1.401 3.511s2.166 1.714 3.588 2.022c1.269-1.343 2.012-3.003 2.121-4.739s-.422-3.456-1.515-4.911zM36.57 14.862c-.005-1.51-.698-2.958-1.927-4.026s-2.895-1.67-4.634-1.674c-.803-.001-1.6.128-2.349.38l8.471 7.36c.29-.651.439-1.342.438-2.04z"/></svg><svg width="59" height="32" viewBox="0 0 59 32" x="384" y="48"><path fill="#afb1b8" d="M28.561 8.225h-.047c-.073-.004-.146-.006-.219-.008h-.158c-.138 0-.279.004-.419.011-.011-.001-.021-.001-.032 0-1.268.072-2.51.389-3.658.933l-.15.073v7.701l.352-.119c.309-.106.638-.202.978-.29.921-.236 1.866-.362 2.816-.374v1.012c-.126.001-.248.004-.37.011h-.029c-.731.04-1.457.151-2.166.333-.899.225-1.766.563-2.581 1.006V8.637c.846-.494 1.758-.864 2.707-1.101.834-.215 1.691-.326 2.552-.329h.149c.178.004.351.012.514.025.429.03.854.098 1.271.203v.996c-.405-.094-.817-.156-1.232-.186-.008-.001-.017-.001-.025-.002-.086-.007-.172-.015-.252-.015zm1.753 1.018c.221.017.45.025.681.025.905-.003 1.806-.119 2.683-.344.898-.226 1.765-.564 2.58-1.007v9.701c-.847.493-1.758.864-2.708 1.101-.834.214-1.691.325-2.552.328-.652.005-1.302-.071-1.936-.228V9.055c.15.034.304.066.46.093.257.043.528.075.792.095zm4.937.076-.352.118c-.324.109-.65.206-.978.293-.956.246-1.938.371-2.924.375-.23 0-.441-.006-.645-.019l-.281-.019v7.922l.241.021c.224.019.454.029.686.029.777-.003 1.55-.103 2.303-.298.62-.155 1.222-.372 1.799-.647l.151-.073V9.317zM23.561 21.887c-.051-.052-.112-.094-.179-.121s-.14-.04-.213-.037c-.077-.001-.154.013-.226.042-.066.026-.126.066-.176.116s-.088.111-.113.177c-.028.069-.041.144-.041.218v1.32c-.003.093.015.186.052.271.031.068.076.128.132.177.053.044.115.076.181.094.064.018.13.027.197.027.073.001.146-.015.213-.046.066-.029.126-.07.176-.122.049-.051.088-.111.115-.177.028-.067.043-.138.042-.21v-.148h-.345v.118c.001.04-.006.08-.02.118-.011.028-.028.053-.05.074-.021.017-.046.03-.072.038-.023.008-.048.012-.072.012-.031.004-.062-.001-.09-.014s-.053-.032-.071-.057c-.033-.053-.048-.115-.046-.177v-1.23c-.002-.068.012-.136.042-.197.018-.028.043-.05.073-.064s.063-.019.096-.015c.03-.001.059.005.086.018s.05.032.068.056c.039.051.059.113.057.177v.114h.341v-.134c.001-.079-.014-.157-.042-.231-.025-.069-.065-.132-.115-.186zM25.61 21.872c-.11-.093-.249-.144-.392-.145-.07 0-.14.013-.206.037-.067.024-.129.061-.182.108-.057.051-.103.114-.134.185-.035.081-.052.168-.05.256v1.266c-.002.089.015.178.05.259.031.068.077.128.134.177.053.049.115.087.182.111.066.024.136.037.206.037s.14-.013.206-.037c.069-.025.132-.063.187-.111s.099-.11.13-.177c.035-.082.053-.17.05-.259v-1.266c.002-.088-.015-.175-.05-.256-.031-.07-.075-.133-.13-.185zm-.161 1.706c.003.034-.002.068-.014.099s-.031.06-.055.084c-.046.038-.103.059-.162.059s-.117-.021-.162-.059c-.024-.023-.043-.052-.055-.084s-.017-.066-.014-.099v-1.266c-.003-.034.002-.068.014-.099s.031-.06.055-.084c.046-.038.103-.059.162-.059s.117.021.162.059c.024.023.043.052.055.084s.017.066.014.099v1.266zM28.302 24.143v-2.396h-.332l-.436 1.268h-.006l-.439-1.268h-.328v2.396h.342v-1.458h.006l.335 1.03h.171l.338-1.03h.006v1.458h.342zM30.246 21.915c-.053-.059-.119-.104-.194-.131-.08-.026-.164-.039-.248-.037h-.509v2.396h.341v-.936h.176c.107.005.213-.018.308-.065.078-.043.142-.106.187-.183.039-.064.066-.135.078-.209.013-.09.02-.181.018-.272.003-.115-.008-.23-.033-.342-.023-.083-.066-.159-.126-.22zm-.176.731c-.001.043-.012.086-.032.125-.02.037-.05.066-.088.084-.051.023-.106.033-.161.03h-.156v-.815h.176c.053-.003.106.008.154.03.035.02.063.051.08.088.019.042.029.087.03.134v.159c0 .055.003.113 0 .165h-.003zM31.864 21.747h-.28l-.528 2.396h.341l.1-.515h.465l.1.515h.341l-.541-2.396zm-.315 1.555.168-.869h.006l.167.869h-.341zM34.069 23.191h-.006l-.516-1.443h-.328v2.396h.341v-1.441h.007l.522 1.441h.321v-2.396h-.341v1.443zM36.156 21.747l-.275.953h-.007l-.274-.953h-.362l.469 1.383v1.013h.342V23.13l.469-1.383h-.361zM22.609 24.82h.165v.462h.112v-.462h.164v-.095h-.44v.095zM23.992 24.725l-.216.556h.119l.046-.127h.222l.047.127h.121l-.221-.556h-.119zm-.018.337.076-.206.076.206h-.151zM25.359 25.077h.128v.072c-.038.03-.084.047-.132.047-.022.001-.045-.003-.065-.012s-.039-.023-.053-.041c-.029-.042-.044-.093-.041-.145 0-.124.054-.186.16-.186.028-.003.056.005.079.021s.04.04.047.068l.11-.021c-.024-.109-.102-.164-.236-.164-.072-.002-.141.024-.194.072-.028.028-.05.061-.064.098s-.019.077-.017.116c-.003.076.022.151.071.209.027.028.06.05.097.064s.076.02.114.017c.087.002.172-.029.236-.088v-.219h-.241v.094zM26.756 24.725h-.113v.556h.39v-.095h-.277v-.462zM27.937 24.725h-.113v.556h.113v-.556zM29.091 25.097l-.228-.371h-.109v.556h.105v-.364l.224.364h.112v-.556h-.103v.371zM30.135 25.037h.277v-.095h-.277v-.122h.298v-.095h-.411v.556h.422v-.095h-.31v-.15zM32.665 24.945h-.219v-.219h-.112v.556h.112v-.243h.219v.243h.112v-.556h-.112v.219zM33.715 25.037h.278v-.095h-.278v-.122h.299v-.095h-.411v.556h.421v-.095h-.31v-.15zM35.138 25.037c.097-.015.146-.066.146-.155.003-.024-.001-.048-.01-.069s-.025-.041-.044-.054c-.05-.025-.106-.037-.163-.033h-.236v.556h.112v-.233h.022c.024-.001.048.003.07.012.016.01.03.024.04.041l.121.177h.134l-.068-.109c-.03-.054-.072-.099-.123-.134zm-.112-.077h-.082v-.14h.088c.038-.003.077.001.113.013.008.007.015.016.019.026s.006.021.006.032-.003.021-.008.031-.013.018-.021.024c-.037.011-.075.016-.114.013zM36.212 25.037h.277v-.095h-.277v-.122h.299v-.095h-.412v.556h.422v-.095h-.31v-.15z"/></svg><svg width="59" height="32" viewBox="0 0 59 32" x="480" y="48"><path fill="#afb1b8" d="m24.348 8.596 2.438 2.308-4.524-.003v11.196h11.826v-4.281l2.435 2.305V8.596H24.349zm9.632 8.949-6.911-6.543h6.911v6.543zm-2.146 2.914h-7.702v-7.53h.544v7.02h7.157v.51zm-5.883 3.128-.285.586-.285-.586h-.239l.415.781v.455h.216v-.455l.414-.781h-.238zm.357 1.236.1-.288h.479l.101.288h.224l-.468-1.236h-.193l-.467 1.236h.223zm.34-.974.179.513h-.358l.179-.513zm1.133.483c-.031.048-.047.1-.047.157 0 .104.037.189.11.254s.172.097.294.097.228-.033.316-.099l.07.082h.239l-.182-.215c.071-.097.107-.222.107-.375h-.179c0 .083-.017.159-.052.227l-.239-.282.084-.061c.059-.043.102-.086.128-.129s.039-.091.039-.143c0-.078-.029-.143-.087-.196s-.131-.08-.221-.08c-.1 0-.179.028-.238.085s-.088.132-.088.229c0 .04.009.081.028.123s.053.094.101.155c-.092.066-.153.123-.184.171zm.558.274c-.061.046-.126.07-.195.07-.062 0-.111-.018-.148-.053s-.055-.082-.055-.139c0-.066.034-.125.102-.177l.026-.019.27.318zm-.222-.548c-.058-.072-.087-.132-.087-.179 0-.041.012-.076.036-.103s.056-.041.096-.041c.037 0 .068.012.093.035s.037.05.037.082c0 .049-.018.089-.053.12l-.026.021-.094.065zm2.013.672c.085-.074.134-.177.146-.309h-.214c-.011.088-.038.151-.081.189s-.106.057-.19.057c-.092 0-.162-.035-.211-.105s-.071-.172-.071-.306v-.11c.001-.132.027-.232.076-.3s.122-.103.216-.103c.08 0 .141.02.183.059s.068.103.078.192h.214c-.014-.135-.062-.24-.145-.314s-.193-.111-.329-.111c-.101 0-.191.024-.268.072s-.136.117-.177.206c-.041.089-.062.192-.062.308v.115c.002.114.023.214.064.3s.099.153.173.2c.075.046.162.07.261.07.141 0 .254-.037.339-.11zm1.262-.173c.042-.092.063-.198.063-.319v-.069c-.001-.121-.022-.226-.065-.317s-.103-.161-.181-.209c-.078-.049-.167-.073-.267-.073s-.19.025-.268.074c-.078.049-.138.119-.181.211s-.064.199-.064.319v.07c.001.118.022.223.065.313s.104.16.182.21c.079.049.168.073.268.073.101 0 .191-.024.268-.073s.138-.119.18-.211zm-.23-.699c.052.073.078.178.078.315v.065c0 .139-.026.245-.077.318s-.124.109-.219.109c-.094 0-.168-.037-.221-.111s-.079-.179-.079-.315v-.071c.001-.133.028-.236.08-.308s.125-.11.218-.11c.095 0 .168.037.22.11z"/></svg></svg>